<?xml version="1.0" encoding="UTF-8"?>
<svg version="1.1" xmlns="http://www.w3.org/2000/svg" width="286" height="73">
<path d="M0 0 C1.18631012 0.00470306 2.37262024 0.00940613 3.59487915 0.01425171 C7.36853962 0.03553847 11.14077903 0.09216291 14.9140625 0.1484375 C17.47524724 0.16494874 20.03644692 0.17929574 22.59765625 0.19140625 C27.25848081 0.22535222 31.91916664 0.25984039 36.57958984 0.33056641 C37.51556 0.34342682 38.45153015 0.35628723 39.41586304 0.36953735 C41.5390625 0.5234375 41.5390625 0.5234375 42.5390625 1.5234375 C44.15156058 9.88453864 43.57710713 16.42130961 39.2109375 23.75390625 C36.23359203 28.05538694 33.58170891 30.6897479 28.5390625 32.5234375 C27.8790625 32.5234375 27.2190625 32.5234375 26.5390625 32.5234375 C26.0440625 33.5134375 26.0440625 33.5134375 25.5390625 34.5234375 C21.65239494 36.23357123 17.58875078 35.13089074 13.5390625 34.5234375 C12.15139928 28.46817982 13.04788104 25.20333124 15.5390625 19.5234375 C14.57806641 19.43255859 14.57806641 19.43255859 13.59765625 19.33984375 C12.73269531 19.25605469 11.86773437 19.17226563 10.9765625 19.0859375 C10.12964844 19.00472656 9.28273438 18.92351563 8.41015625 18.83984375 C5.11063712 18.47622327 1.82519479 17.99288497 -1.4609375 17.5234375 C-1.4609375 22.8034375 -1.4609375 28.0834375 -1.4609375 33.5234375 C0.0240625 33.6265625 1.5090625 33.7296875 3.0390625 33.8359375 C7.99796887 34.3162874 11.96887974 35.57687817 16.5390625 37.5234375 C16.5390625 38.1834375 16.5390625 38.8434375 16.5390625 39.5234375 C17.5290625 39.8534375 18.5190625 40.1834375 19.5390625 40.5234375 C21.03515625 42.328125 21.03515625 42.328125 22.5390625 44.5234375 C23.5590844 45.89903956 24.57991264 47.27404408 25.6015625 48.6484375 C26.10816406 49.33164062 26.61476562 50.01484375 27.13671875 50.71875 C28.55896192 52.62632423 28.55896192 52.62632423 30.5390625 54.5234375 C32.5390625 56.5234375 32.5390625 56.5234375 32.5390625 59.5234375 C33.1990625 59.5234375 33.8590625 59.5234375 34.5390625 59.5234375 C34.9721875 60.4825 34.9721875 60.4825 35.4140625 61.4609375 C36.36729701 63.67549829 36.36729701 63.67549829 38.5390625 64.5234375 C39.6640625 66.5859375 39.6640625 66.5859375 40.5390625 68.5234375 C39.8790625 68.5234375 39.2190625 68.5234375 38.5390625 68.5234375 C38.5390625 69.1834375 38.5390625 69.8434375 38.5390625 70.5234375 C35.8088236 70.6318042 33.08291707 70.71090444 30.3515625 70.7734375 C29.58263672 70.80695313 28.81371094 70.84046875 28.02148438 70.875 C24.00067009 70.94402685 22.05426519 70.85420171 18.58203125 68.625 C16.68029471 66.66872034 15.11026996 64.74931473 13.5390625 62.5234375 C12.6728125 61.5334375 11.8065625 60.5434375 10.9140625 59.5234375 C8.87187815 56.94383621 7.90551161 55.69932979 7.5390625 52.5234375 C6.8790625 52.5234375 6.2190625 52.5234375 5.5390625 52.5234375 C5.5390625 51.8634375 5.5390625 51.2034375 5.5390625 50.5234375 C4.8790625 50.5234375 4.2190625 50.5234375 3.5390625 50.5234375 C3.5390625 49.5334375 3.5390625 48.5434375 3.5390625 47.5234375 C2.0540625 47.0284375 2.0540625 47.0284375 0.5390625 46.5234375 C0.2090625 45.8634375 -0.1209375 45.2034375 -0.4609375 44.5234375 C-0.79775812 46.7729181 -1.13026751 49.02304454 -1.4609375 51.2734375 C-1.6465625 52.52640625 -1.8321875 53.779375 -2.0234375 55.0703125 C-2.54473219 58.60469544 -2.54473219 58.60469544 -2.4609375 62.5234375 C-3.1209375 62.5234375 -3.7809375 62.5234375 -4.4609375 62.5234375 C-4.4609375 63.1834375 -4.4609375 63.8434375 -4.4609375 64.5234375 C-5.1209375 64.5234375 -5.7809375 64.5234375 -6.4609375 64.5234375 C-6.7909375 65.5134375 -7.1209375 66.5034375 -7.4609375 67.5234375 C-10.00438841 69.43102568 -11.95765731 70.42757461 -15.0859375 71.0234375 C-17.4609375 70.5234375 -17.4609375 70.5234375 -19.08709717 68.33152771 C-20.5788104 65.28250868 -20.83058139 63.4613269 -20.81738281 60.09399414 C-20.82038391 59.03261734 -20.82338501 57.97124054 -20.82647705 56.87770081 C-20.81413025 55.74114548 -20.80178345 54.60459015 -20.7890625 53.43359375 C-20.78625275 51.66767128 -20.78625275 51.66767128 -20.78338623 49.86607361 C-20.77667026 47.37886723 -20.76276488 44.89167134 -20.7421875 42.40454102 C-20.71108186 38.6035781 -20.701219 34.80303064 -20.6953125 31.00195312 C-20.68613985 28.5833283 -20.67576325 26.16470767 -20.6640625 23.74609375 C-20.65981262 22.61156265 -20.65556274 21.47703156 -20.65118408 20.30812073 C-20.63677277 18.71132729 -20.63677277 18.71132729 -20.62207031 17.08227539 C-20.61524231 16.15137589 -20.60841431 15.22047638 -20.60137939 14.2613678 C-20.19142714 6.26930317 -20.19142714 6.26930317 -16.67724609 2.68115234 C-11.50334977 -0.60028351 -5.93492932 -0.1178203 0 0 Z " fill="#417770" transform="translate(22.4609375,0.4765625)"/>
<path d="M0 0 C9.0028125 -0.1546875 9.0028125 -0.1546875 18.1875 -0.3125 C21.01671021 -0.38078003 21.01671021 -0.38078003 23.90307617 -0.45043945 C25.4080223 -0.46505058 26.91298826 -0.47778978 28.41796875 -0.48828125 C29.1912854 -0.51386108 29.96460205 -0.53944092 30.76135254 -0.5657959 C34.96013108 -0.56917601 36.5442696 -0.3482202 39.99707031 2.29003906 C42.62315431 5.84312687 42.70670025 8.81054133 42.5625 13.0625 C42.57345703 13.76955078 42.58441406 14.47660156 42.59570312 15.20507812 C42.54835686 18.5666627 42.24725258 20.64977266 40.29296875 23.41796875 C37.71214001 25.19860868 35.83419854 25.76302128 32.75 26.25 C31.85796875 26.39953125 30.9659375 26.5490625 30.046875 26.703125 C29.03367188 26.85007812 29.03367188 26.85007812 28 27 C30.17220355 29.73277221 31.85827965 31.72888915 35.3359375 32.5546875 C37.55027957 32.78520261 39.77592025 32.90041434 42 33 C42 35.97 42 38.94 42 42 C37.3576778 43.05685244 33.63224261 43.1872751 29 42 C25.23790335 39.27108436 22.17783071 35.89898165 19.11499023 32.42358398 C18.52016846 31.74884033 17.92534668 31.07409668 17.3125 30.37890625 C16.53326172 29.44413452 16.53326172 29.44413452 15.73828125 28.49047852 C13.72907289 26.52166596 13.72907289 26.52166596 9 26 C9 31.28 9 36.56 9 42 C6.03 42 3.06 42 0 42 C0 28.14 0 14.28 0 0 Z M9 9 C9 11.31 9 13.62 9 16 C16.92 16 24.84 16 33 16 C33 13.69 33 11.38 33 9 C25.08 9 17.16 9 9 9 Z " fill="#417B6F" transform="translate(152,23)"/>
<path d="M0 0 C1.22126839 0.00848969 1.22126839 0.00848969 2.46720886 0.01715088 C5.05557228 0.03945726 7.64252715 0.08964055 10.23046875 0.140625 C11.99021431 0.16069753 13.74998168 0.17894698 15.50976562 0.1953125 C19.8130388 0.23930293 24.11526535 0.30828873 28.41796875 0.390625 C28.41796875 3.360625 28.41796875 6.330625 28.41796875 9.390625 C17.52796875 9.390625 6.63796875 9.390625 -4.58203125 9.390625 C-4.58203125 11.700625 -4.58203125 14.010625 -4.58203125 16.390625 C6.30796875 16.390625 17.19796875 16.390625 28.41796875 16.390625 C28.41796875 19.690625 28.41796875 22.990625 28.41796875 26.390625 C17.52796875 26.390625 6.63796875 26.390625 -4.58203125 26.390625 C-4.58203125 28.700625 -4.58203125 31.010625 -4.58203125 33.390625 C6.30796875 33.390625 17.19796875 33.390625 28.41796875 33.390625 C28.41796875 36.360625 28.41796875 39.330625 28.41796875 42.390625 C23.07948203 42.48957043 17.74153006 42.56212914 12.40234375 42.61035156 C10.58649395 42.63045561 8.7707088 42.65774335 6.95507812 42.69238281 C4.3435877 42.74095539 1.73295377 42.76360527 -0.87890625 42.78125 C-1.68946472 42.80189514 -2.50002319 42.82254028 -3.33514404 42.84381104 C-6.77392023 42.84517718 -9.13206348 42.66756866 -12.09057617 40.84667969 C-14.12058296 37.50376459 -14.17497475 34.5046597 -14.1484375 30.703125 C-14.15463608 29.96360596 -14.16083466 29.22408691 -14.16722107 28.4621582 C-14.17430938 26.90219435 -14.17116232 25.3421547 -14.15844727 23.78222656 C-14.14457225 21.39767152 -14.178667 19.0170366 -14.21679688 16.6328125 C-14.21774807 15.11458238 -14.21588921 13.59634735 -14.2109375 12.078125 C-14.22419571 11.36760986 -14.23745392 10.65709473 -14.25111389 9.92504883 C-14.18564147 6.43809657 -13.80217183 4.66056822 -11.57910156 1.93457031 C-7.67829564 -0.07493577 -4.28061825 -0.11279047 0 0 Z " fill="#417B6F" transform="translate(74.58203125,22.609375)"/>
<path d="M0 0 C1.26092972 0.00212242 1.26092972 0.00212242 2.54733276 0.00428772 C5.23732025 0.00989388 7.92722509 0.02244739 10.6171875 0.03515625 C12.43880088 0.04017046 14.26041557 0.0447335 16.08203125 0.04882812 C20.55211527 0.05986531 25.02213736 0.07713405 29.4921875 0.09765625 C29.4921875 3.06765625 29.4921875 6.03765625 29.4921875 9.09765625 C18.2721875 9.09765625 7.0521875 9.09765625 -4.5078125 9.09765625 C-4.5078125 17.01765625 -4.5078125 24.93765625 -4.5078125 33.09765625 C3.7421875 33.09765625 11.9921875 33.09765625 20.4921875 33.09765625 C20.4921875 30.78765625 20.4921875 28.47765625 20.4921875 26.09765625 C14.8821875 26.09765625 9.2721875 26.09765625 3.4921875 26.09765625 C3.4921875 22.79765625 3.4921875 19.49765625 3.4921875 16.09765625 C12.0721875 16.09765625 20.6521875 16.09765625 29.4921875 16.09765625 C29.5540625 19.29453125 29.6159375 22.49140625 29.6796875 25.78515625 C29.72065552 27.28308716 29.72065552 27.28308716 29.76245117 28.8112793 C29.80824215 33.69811217 29.78625625 37.18146313 26.4921875 41.09765625 C23.52075958 42.58337021 20.47827856 42.28096249 17.21875 42.30078125 C16.49859711 42.30648132 15.77844421 42.3121814 15.03646851 42.3180542 C13.51163197 42.3275046 11.98677501 42.33403834 10.46191406 42.33789062 C8.13309938 42.34758998 5.80516974 42.37860865 3.4765625 42.41015625 C1.99479691 42.41668712 0.513025 42.42193726 -0.96875 42.42578125 C-1.66366547 42.43812805 -2.35858093 42.45047485 -3.07455444 42.4631958 C-6.12852469 42.44918007 -8.22200788 42.25582503 -10.91650391 40.76464844 C-15.12037383 36.36083994 -13.73197395 29.04923545 -13.74804688 23.32861328 C-13.75774645 21.23689919 -13.78878012 19.14617088 -13.8203125 17.0546875 C-13.8268439 15.71745372 -13.83209383 14.38021295 -13.8359375 13.04296875 C-13.8452832 11.83141113 -13.85462891 10.61985352 -13.86425781 9.37158203 C-13.47630887 5.80829752 -12.65052585 3.9400444 -10.5078125 1.09765625 C-7.22889325 -0.54180338 -3.60167716 -0.02264553 0 0 Z " fill="#417B6F" transform="translate(119.5078125,22.90234375)"/>
<path d="M0 0 C1.07667183 -0.01354271 1.07667183 -0.01354271 2.1750946 -0.02735901 C3.69570742 -0.04187661 5.21638291 -0.050752 6.73706055 -0.05444336 C9.05560878 -0.06631099 11.37146941 -0.11544771 13.68945312 -0.16601562 C15.16795578 -0.17548351 16.64647477 -0.1827168 18.125 -0.1875 C18.81475418 -0.20703232 19.50450836 -0.22656464 20.21516418 -0.24668884 C23.87608081 -0.21265964 25.68947661 0.32000078 28.69970703 2.44897461 C31.28508395 6.11276532 31.39314602 8.22419448 31.390625 12.68359375 C31.39303696 13.37493408 31.39544891 14.06627441 31.39793396 14.77856445 C31.39695831 16.23427083 31.38363164 17.69001561 31.35864258 19.14550781 C31.32430956 21.36522285 31.33799718 23.58095635 31.35742188 25.80078125 C31.35052289 27.22006891 31.34085001 28.63934637 31.328125 30.05859375 C31.31724854 31.34121094 31.30637207 32.62382813 31.29516602 33.9453125 C30.65845594 38.03424424 29.91501753 39.68567336 26.76171875 42.37109375 C23.99058315 42.86910442 21.83974768 43.05160476 19.07421875 43 C18.33469971 43.00241196 17.59518066 43.00482391 16.83325195 43.00730896 C15.27322007 43.00633157 13.71315304 42.99296331 12.15332031 42.96801758 C9.76898078 42.93369828 7.38834748 42.94736117 5.00390625 42.96679688 C3.48566135 42.95989813 1.96742599 42.95022547 0.44921875 42.9375 C-0.26129639 42.94245987 -0.97181152 42.94741974 -1.70385742 42.95252991 C-5.08950869 42.87220497 -6.93391674 42.60370027 -9.65625 40.52319336 C-13.66428283 35.07090795 -12.46240578 27.95849186 -12.48828125 21.49609375 C-12.50890625 20.21605469 -12.52953125 18.93601562 -12.55078125 17.6171875 C-12.55851563 15.76673828 -12.55851563 15.76673828 -12.56640625 13.87890625 C-12.57575195 12.7511377 -12.58509766 11.62336914 -12.59472656 10.46142578 C-11.66119059 2.3677968 -7.457257 0.05747269 0 0 Z M-2.23828125 9.37109375 C-2.23828125 17.29109375 -2.23828125 25.21109375 -2.23828125 33.37109375 C5.68171875 33.37109375 13.60171875 33.37109375 21.76171875 33.37109375 C21.76171875 25.45109375 21.76171875 17.53109375 21.76171875 9.37109375 C13.84171875 9.37109375 5.92171875 9.37109375 -2.23828125 9.37109375 Z " fill="#417B6F" transform="translate(209.23828125,22.62890625)"/>
<path d="M0 0 C2.97 0 5.94 0 9 0 C9 7.59 9 15.18 9 23 C10.32 23.66 11.64 24.32 13 25 C14.80262141 26.56148126 16.50753272 28.19481016 18.21875 29.85546875 C19.91211417 31.21590536 19.91211417 31.21590536 21.84960938 30.74755859 C26.15569528 29.2505973 29.27694873 26.62580196 32 23 C33.08167863 19.00022142 33.07680514 15.18693613 33 11.0625 C33.01160156 9.99708984 33.02320313 8.93167969 33.03515625 7.83398438 C33.05857553 5.22273497 33.03410458 2.61113171 33 0 C36.3 0 39.6 0 43 0 C43.08729047 4.06236402 43.14048992 8.12448589 43.1875 12.1875 C43.21263672 13.33798828 43.23777344 14.48847656 43.26367188 15.67382812 C43.27333984 16.78564453 43.28300781 17.89746094 43.29296875 19.04296875 C43.3086792 20.06414795 43.32438965 21.08532715 43.34057617 22.13745117 C42.78313826 26.8227268 40.50183366 29.89874391 36.93359375 32.859375 C36.36576172 33.33503906 35.79792969 33.81070313 35.21289062 34.30078125 C34.62701172 34.77902344 34.04113281 35.25726563 33.4375 35.75 C32.84775391 36.24371094 32.25800781 36.73742188 31.65039062 37.24609375 C27.3392231 40.82647179 24.91559869 42.47354056 19.17041016 42.39697266 C15.12035541 41.65620899 12.59027967 38.95007955 9.6875 36.1875 C9.08099609 35.64029297 8.47449219 35.09308594 7.84960938 34.52929688 C6.21007627 33.04127178 4.5954199 31.53512711 3 30 C2.44763672 29.57267578 1.89527344 29.14535156 1.32617188 28.70507812 C-0.6751552 26.13194331 -0.33827015 24.01718054 -0.29296875 20.80078125 C-0.28330078 19.59228516 -0.27363281 18.38378906 -0.26367188 17.13867188 C-0.23853516 15.87603516 -0.21339844 14.61339844 -0.1875 13.3125 C-0.17396484 12.03826172 -0.16042969 10.76402344 -0.14648438 9.45117188 C-0.11108199 6.30035943 -0.0616979 3.15038955 0 0 Z " fill="#417B6F" transform="translate(243,23)"/>
<path d="M0 0 C6.19518473 0.41588046 11.26689311 1.60251894 17 4 C17 4.66 17 5.32 17 6 C17.99 6.33 18.98 6.66 20 7 C21.49609375 8.8046875 21.49609375 8.8046875 23 11 C24.0200219 12.37560206 25.04085014 13.75060658 26.0625 15.125 C26.56910156 15.80820312 27.07570313 16.49140625 27.59765625 17.1953125 C29.01989942 19.10288673 29.01989942 19.10288673 31 21 C33 23 33 23 33 26 C33.66 26 34.32 26 35 26 C35.28875 26.639375 35.5775 27.27875 35.875 27.9375 C36.82823451 30.15206079 36.82823451 30.15206079 39 31 C40.125 33.0625 40.125 33.0625 41 35 C40.34 35 39.68 35 39 35 C39 35.66 39 36.32 39 37 C36.2697611 37.1083667 33.54385457 37.18746694 30.8125 37.25 C29.65911133 37.30027344 29.65911133 37.30027344 28.48242188 37.3515625 C24.46160759 37.42058935 22.51520269 37.33076421 19.04296875 35.1015625 C17.14123221 33.14528284 15.57120746 31.22587723 14 29 C13.13375 28.01 12.2675 27.02 11.375 26 C9.33281565 23.42039871 8.36644911 22.17589229 8 19 C7.34 19 6.68 19 6 19 C6 18.34 6 17.68 6 17 C5.34 17 4.68 17 4 17 C4 16.01 4 15.02 4 14 C3.01 13.67 2.02 13.34 1 13 C-0.82170566 9.45779454 -1.45269624 5.92234364 -2 2 C-1.34 2 -0.68 2 0 2 C0 1.34 0 0.68 0 0 Z " fill="#40736D" transform="translate(22,34)"/>
<path d="M0 0 C0.33 0 0.66 0 1 0 C2.46616541 10.15037594 2.46616541 10.15037594 1 15 C-0.75 17.0625 -0.75 17.0625 -3 19 C-4.2065625 20.3303125 -4.2065625 20.3303125 -5.4375 21.6875 C-8.15807344 24.14265164 -9.47557302 24.51049625 -13 25 C-13.33 25.66 -13.66 26.32 -14 27 C-17.88666756 28.71013373 -21.95031172 27.60745324 -26 27 C-27.34263028 21.14124969 -26.6552586 17.38070025 -24 12 C-20.00297428 6.00446142 -11.70668494 3.15057462 -4.8125 1.6875 C-2.9253125 1.3471875 -2.9253125 1.3471875 -1 1 C-0.67 0.67 -0.34 0.34 0 0 Z " fill="#3F9F71" transform="translate(62,8)"/>
<path d="M0 0 C0.66 0 1.32 0 2 0 C1.98839844 0.79664062 1.97679687 1.59328125 1.96484375 2.4140625 C1.88148443 10.25478989 1.88148443 10.25478989 3 18 C2.34 18 1.68 18 1 18 C1.33 18.66 1.66 19.32 2 20 C2.4027055 26.82230502 2.46142699 34.29949513 1 41 C0.01 41.495 0.01 41.495 -1 42 C-1.02470469 36.50073576 -1.04286223 31.00150378 -1.05493164 25.50219727 C-1.05996279 23.63109779 -1.06678835 21.76000225 -1.07543945 19.88891602 C-1.08755829 17.20067372 -1.09324047 14.51248336 -1.09765625 11.82421875 C-1.10281754 10.98662521 -1.10797882 10.14903168 -1.11329651 9.28605652 C-1.11362064 5.93624258 -1.06684515 3.20053544 0 0 Z " fill="#809D9A" transform="translate(19,18)"/>
<path d="M0 0 C0.33 0 0.66 0 1 0 C1 2.31 1 4.62 1 7 C3.97 4.69 6.94 2.38 10 0 C10 3 10 3 8.50390625 4.53515625 C7.86324219 5.03917969 7.22257812 5.54320312 6.5625 6.0625 C3.84124807 8.1671333 3.84124807 8.1671333 2 11 C3.65 11 5.3 11 7 11 C7 11.33 7 11.66 7 12 C4.36 12 1.72 12 -1 12 C-1.92470553 7.28400182 -2.22923777 4.32734391 0 0 Z " fill="#66B089" transform="translate(37,23)"/>
<path d="M0 0 C2.27141109 0.11402064 4.54214552 0.24158505 6.8125 0.375 C8.07707031 0.44460937 9.34164062 0.51421875 10.64453125 0.5859375 C14 1 14 1 17 3 C14.54101345 3.08076963 12.08466258 3.14037143 9.625 3.1875 C8.57699219 3.22520508 8.57699219 3.22520508 7.5078125 3.26367188 C5.4765625 3.29296875 5.4765625 3.29296875 2 3 C1.34 2.01 0.68 1.02 0 0 Z " fill="#667774" transform="translate(42,68)"/>
<path d="M0 0 C0.66 0 1.32 0 2 0 C1.98259766 1.19496094 1.98259766 1.19496094 1.96484375 2.4140625 C1.88148443 10.25478989 1.88148443 10.25478989 3 18 C2.01 18.33 1.02 18.66 0 19 C0 12.73 0 6.46 0 0 Z " fill="#C7D0D2" transform="translate(19,18)"/>
<path d="M0 0 C0.99 0 1.98 0 3 0 C4.35439668 2.70879335 4.06501451 5.00933268 4 8 C3.01 8.33 2.02 8.66 1 9 C0.67 6.03 0.34 3.06 0 0 Z " fill="#3B8F67" transform="translate(37,21)"/>
<path d="M0 0 C0 1.98 0 3.96 0 6 C0.66 6 1.32 6 2 6 C1.67 7.65 1.34 9.3 1 11 C0.34 11 -0.32 11 -1 11 C-1.33 8.69 -1.66 6.38 -2 4 C-2.99 4 -3.98 4 -5 4 C-1.125 0 -1.125 0 0 0 Z " fill="#44876A" transform="translate(64,5)"/>
<path d="M0 0 C-1.8125 2 -1.8125 2 -4 4 C-4.99 4 -5.98 4 -7 4 C-7 3.01 -7 2.02 -7 1 C-4.53721199 -0.231394 -2.7204945 -0.07159196 0 0 Z " fill="#3E5B5B" transform="translate(15,1)"/>
</svg>
